<svg xmlns="http://www.w3.org/2000/svg" width="540" height="280" viewBox="0 0 540 280" role="img" aria-labelledby="title desc">
  <title id="title">Case 002 — AetherKiri</title><desc id="desc">A Godot-hosted KiriKiri2 runtime with a C++ engine core and native exports.</desc>
  <rect x="1" y="1" width="538" height="278" rx="12" fill="#080b10" stroke="#6795ba" stroke-width="2"/>
  <rect x="13" y="13" width="514" height="254" rx="8" fill="none" stroke="#ecdce2" stroke-opacity=".16"/>
  <rect x="24" y="24" width="8" height="232" rx="4" fill="#6795ba"/>
  <g font-family="Arial, Helvetica, sans-serif"><text x="52" y="50" fill="#7da6c7" font-size="12" letter-spacing="3">EVIDENCE FILE // CASE 002</text><text x="52" y="91" fill="#f7fbff" font-family="Georgia, serif" font-size="29" font-weight="700">AetherKiri</text><path d="M52 110h445" stroke="#34556e"/><text x="52" y="138" fill="#e1e9ef" font-size="14">A Godot-hosted KiriKiri2 runtime with a C++17 core,</text><text x="52" y="159" fill="#e1e9ef" font-size="14">native GDExtension integration, and exports for</text><text x="52" y="180" fill="#e1e9ef" font-size="14">mobile, desktop, and Web.</text><g font-size="12"><rect x="52" y="198" width="86" height="26" rx="13" fill="#142737"/><text x="95" y="216" text-anchor="middle" fill="#9cc0dc">KIRIKIRI2</text><rect x="148" y="198" width="86" height="26" rx="13" fill="#142737"/><text x="191" y="216" text-anchor="middle" fill="#9cc0dc">GODOT 4.7</text><rect x="244" y="198" width="58" height="26" rx="13" fill="#142737"/><text x="273" y="216" text-anchor="middle" fill="#9cc0dc">C++17</text><rect x="312" y="198" width="110" height="26" rx="13" fill="#142737"/><text x="367" y="216" text-anchor="middle" fill="#9cc0dc">GDEXTENSION</text></g><text x="52" y="250" fill="#8295a4" font-size="11" letter-spacing="2">STATUS: IN DEVELOPMENT // OPEN EVIDENCE →</text></g>
</svg>
