<svg xmlns="http://www.w3.org/2000/svg" width="1120" height="132" viewBox="0 0 1120 132" role="img" aria-labelledby="title desc">
  <title id="title">York Yang's technology stack</title>
  <desc id="desc">Nine gothic witch-factor seals for Python, Kotlin, JavaScript, TypeScript, Vue, Swift, Rust, C++ and Ren'Py.</desc>
  <defs>
    <linearGradient id="pink" x1="0" y1="0" x2="1" y2="1"><stop stop-color="#f2819c"/><stop offset="1" stop-color="#7c263f"/></linearGradient>
    <linearGradient id="blue" x1="0" y1="0" x2="1" y2="1"><stop stop-color="#79a7c9"/><stop offset="1" stop-color="#2f526e"/></linearGradient>
    <linearGradient id="ivory" x1="0" y1="0" x2="1" y2="1"><stop stop-color="#f2dde4"/><stop offset="1" stop-color="#8e7f86"/></linearGradient>
  </defs>
  <rect x="1" y="1" width="1118" height="130" rx="14" fill="#08090d" stroke="#74233a" stroke-width="2"/>
  <path d="M20 20h1080M20 112h1080" stroke="#b7c3d0" stroke-opacity=".12"/>
  <g font-family="Arial, Helvetica, sans-serif" text-anchor="middle">
    <g transform="translate(70 19)"><circle cx="0" cy="37" r="31" fill="#11151c" stroke="url(#pink)" stroke-width="3"/><text y="43" fill="#fff7fa" font-size="17" font-weight="700">PY</text><text y="91" fill="#c8cdd5" font-size="12">PYTHON</text></g>
    <g transform="translate(192 19)"><circle cx="0" cy="37" r="31" fill="#11151c" stroke="url(#blue)" stroke-width="3"/><text y="43" fill="#fff7fa" font-size="17" font-weight="700">KT</text><text y="91" fill="#c8cdd5" font-size="12">KOTLIN</text></g>
    <g transform="translate(314 19)"><circle cx="0" cy="37" r="31" fill="#11151c" stroke="url(#ivory)" stroke-width="3"/><text y="43" fill="#fff7fa" font-size="17" font-weight="700">JS</text><text y="91" fill="#c8cdd5" font-size="12">JAVASCRIPT</text></g>
    <g transform="translate(436 19)"><circle cx="0" cy="37" r="31" fill="#11151c" stroke="url(#blue)" stroke-width="3"/><text y="43" fill="#fff7fa" font-size="17" font-weight="700">TS</text><text y="91" fill="#c8cdd5" font-size="12">TYPESCRIPT</text></g>
    <g transform="translate(558 19)"><circle cx="0" cy="37" r="31" fill="#11151c" stroke="url(#pink)" stroke-width="3"/><text y="43" fill="#fff7fa" font-size="15" font-weight="700">VUE</text><text y="91" fill="#c8cdd5" font-size="12">VUE</text></g>
    <g transform="translate(680 19)"><circle cx="0" cy="37" r="31" fill="#11151c" stroke="url(#ivory)" stroke-width="3"/><text y="43" fill="#fff7fa" font-size="17" font-weight="700">SW</text><text y="91" fill="#c8cdd5" font-size="12">SWIFT</text></g>
    <g transform="translate(802 19)"><circle cx="0" cy="37" r="31" fill="#11151c" stroke="url(#pink)" stroke-width="3"/><text y="43" fill="#fff7fa" font-size="17" font-weight="700">RS</text><text y="91" fill="#c8cdd5" font-size="12">RUST</text></g>
    <g transform="translate(924 19)"><circle cx="0" cy="37" r="31" fill="#11151c" stroke="url(#blue)" stroke-width="3"/><text y="43" fill="#fff7fa" font-size="15" font-weight="700">C++</text><text y="91" fill="#c8cdd5" font-size="12">C++</text></g>
    <g transform="translate(1046 19)"><circle cx="0" cy="37" r="31" fill="#11151c" stroke="url(#ivory)" stroke-width="3"/><text y="43" fill="#fff7fa" font-size="13" font-weight="700">REN</text><text y="91" fill="#c8cdd5" font-size="12">REN'PY</text></g>
  </g>
</svg>
